<svg width="1782" height="1454" viewBox="0 0 1782 1454" fill="none" xmlns="http://www.w3.org/2000/svg">
<g filter="url(#filter0_i_3_160)">
<path d="M212.702 719.027C202.671 634.826 266.381 559.881 351.098 556.225L1405.91 510.705C1480.89 507.469 1546.07 561.719 1556.48 636.043L1575.63 772.592C1587.64 858.304 1522.73 935.532 1436.23 938.438L377.353 974.007C301.723 976.548 236.736 920.767 227.784 845.625L212.702 719.027Z" fill="#252525"/>
</g>
<g filter="url(#filter1_f_3_160)">
<path d="M186.114 818.783C375.186 800.695 805.594 785.971 966.77 772.082C979.461 770.988 960.838 913.643 1174 904.798C1352.39 886.459 1342.65 731.932 1348.77 736.593C1522.43 720.53 1412.95 706.645 1595.49 683.948L1571.36 847.774L223.71 975.259L186.114 818.783Z" fill="#5B5B5B" fill-opacity="0.36"/>
</g>
<g filter="url(#filter2_f_3_160)">
<path d="M1588.61 722.5C1402.21 721.158 1234.36 718.379 1075.61 715.712C1063.11 715.502 1095.61 575.5 886.614 562.5C710.614 562.5 704.614 717.212 699.114 711.951C527.951 710.169 379.605 708.589 199.114 712.5L239.114 552L1567.61 563L1588.61 722.5Z" fill="#232121" fill-opacity="0.26"/>
</g>
<path fill-rule="evenodd" clip-rule="evenodd" d="M976.245 806.344C662.405 843.787 357.526 862.274 191.588 867.708C201.825 952.119 229.57 1054.39 273.554 1128.18C317.538 1201.98 376.738 1266.7 447.773 1318.65C518.808 1370.6 600.286 1408.76 687.557 1430.96C774.828 1453.15 866.182 1458.94 956.403 1448C1046.62 1437.06 1133.94 1409.6 1213.38 1367.19C1292.82 1324.77 1362.81 1268.24 1419.37 1200.82C1475.92 1133.39 1529.74 1051.12 1554.81 968.951C1579.88 886.778 1593.78 787.331 1583.55 702.92C1509.14 721.241 1428.61 737.777 1344.78 752.658C1337.93 845.481 1273.33 923.283 1184.4 936.683C1094.87 950.173 1009.68 894.026 976.245 806.344Z" fill="#FFFBFA"/>
<mask id="path-5-inside-1_3_160" fill="white">
<path fill-rule="evenodd" clip-rule="evenodd" d="M976.245 806.344C662.405 843.787 357.526 862.275 191.588 867.708C201.825 952.119 229.57 1054.39 273.554 1128.18C317.538 1201.98 376.738 1266.7 447.773 1318.65C518.808 1370.6 600.286 1408.76 687.557 1430.96C774.828 1453.15 866.182 1458.94 956.403 1448C1046.62 1437.06 1133.94 1409.6 1213.38 1367.19C1292.82 1324.77 1362.81 1268.24 1419.37 1200.82C1475.92 1133.39 1529.74 1051.12 1554.81 968.951C1579.88 886.778 1593.78 787.331 1583.55 702.92C1509.14 721.241 1428.61 737.777 1344.78 752.659C1337.93 845.481 1273.33 923.283 1184.4 936.683C1094.87 950.173 1009.68 894.026 976.245 806.344Z"/>
</mask>
<path fill-rule="evenodd" clip-rule="evenodd" d="M976.245 806.344C662.405 843.787 357.526 862.275 191.588 867.708C201.825 952.119 229.57 1054.39 273.554 1128.18C317.538 1201.98 376.738 1266.7 447.773 1318.65C518.808 1370.6 600.286 1408.76 687.557 1430.96C774.828 1453.15 866.182 1458.94 956.403 1448C1046.62 1437.06 1133.94 1409.6 1213.38 1367.19C1292.82 1324.77 1362.81 1268.24 1419.37 1200.82C1475.92 1133.39 1529.74 1051.12 1554.81 968.951C1579.88 886.778 1593.78 787.331 1583.55 702.92C1509.14 721.241 1428.61 737.777 1344.78 752.659C1337.93 845.481 1273.33 923.283 1184.4 936.683C1094.87 950.173 1009.68 894.026 976.245 806.344Z" fill="url(#paint0_linear_3_160)"/>
<path d="M191.588 867.708L190.017 819.734L137.626 821.45L143.937 873.487L191.588 867.708ZM976.245 806.344L1021.09 789.24L1007.75 754.245L970.559 758.682L976.245 806.344ZM273.554 1128.18L232.322 1152.76L232.322 1152.76L273.554 1128.18ZM447.773 1318.65L419.438 1357.4L419.438 1357.4L447.773 1318.65ZM687.557 1430.96L699.387 1384.44L699.387 1384.44L687.557 1430.96ZM956.403 1448L962.182 1495.65L962.182 1495.65L956.403 1448ZM1554.81 968.951L1600.72 982.956L1600.72 982.956L1554.81 968.951ZM1583.55 702.92L1631.2 697.141L1624.67 643.36L1572.07 656.312L1583.55 702.92ZM1344.78 752.659L1336.39 705.397L1299.65 711.918L1296.91 749.126L1344.78 752.659ZM1184.4 936.683L1191.55 984.148L1191.55 984.148L1184.4 936.683ZM193.159 915.683C360.302 910.209 666.566 891.631 981.931 854.006L970.559 758.682C658.245 795.943 354.75 814.34 190.017 819.734L193.159 915.683ZM314.786 1103.61C275.314 1037.38 248.972 942.185 239.239 861.929L143.937 873.487C154.678 962.053 183.826 1071.39 232.322 1152.76L314.786 1103.61ZM476.108 1279.91C410.151 1231.67 355.386 1171.73 314.786 1103.61L232.322 1152.76C279.691 1232.23 343.325 1301.73 419.438 1357.4L476.108 1279.91ZM699.387 1384.44C617.923 1363.72 542.072 1328.15 476.108 1279.91L419.438 1357.4C495.543 1413.06 582.649 1453.81 675.727 1477.48L699.387 1384.44ZM950.624 1400.35C866.236 1410.58 780.855 1405.16 699.387 1384.44L675.727 1477.48C768.802 1501.15 866.128 1507.3 962.182 1495.65L950.624 1400.35ZM1190.77 1324.84C1116.62 1364.43 1035.01 1390.11 950.624 1400.35L962.182 1495.65C1058.24 1484 1151.27 1454.76 1235.99 1409.53L1190.77 1324.84ZM1382.59 1169.97C1330.07 1232.58 1264.92 1285.25 1190.77 1324.84L1235.99 1409.53C1320.71 1364.29 1395.55 1303.9 1456.14 1231.66L1382.59 1169.97ZM1508.9 954.945C1486.48 1028.44 1437.11 1104.97 1382.59 1169.97L1456.14 1231.66C1514.74 1161.81 1573.01 1073.81 1600.72 982.956L1508.9 954.945ZM1535.89 708.699C1545.12 784.744 1532.59 877.275 1508.9 954.945L1600.72 982.956C1627.16 896.281 1642.45 789.918 1631.2 697.141L1535.89 708.699ZM1353.17 799.92C1437.77 784.901 1519.36 768.156 1595.02 749.528L1572.07 656.312C1498.91 674.325 1419.44 690.654 1336.39 705.397L1353.17 799.92ZM1296.91 749.126C1291.47 822.738 1241.04 879.607 1177.25 889.219L1191.55 984.148C1305.63 966.959 1384.38 868.223 1392.65 756.191L1296.91 749.126ZM1177.25 889.219C1113.03 898.894 1047.63 858.808 1021.09 789.24L931.396 823.448C971.743 929.244 1076.71 1001.45 1191.55 984.148L1177.25 889.219Z" fill="#9F9F9F" mask="url(#path-5-inside-1_3_160)"/>
<mask id="path-7-inside-2_3_160" fill="white">
<path fill-rule="evenodd" clip-rule="evenodd" d="M1482.15 357.337C1525.76 436.632 1553.28 523.724 1563.12 613.641L1329.39 652.93C1295.37 566.521 1210.87 511.432 1122.1 524.808C1034.78 537.965 970.922 613.211 962.151 703.8L877.278 714.02L583.838 741.703L166.785 776.032C156.943 686.114 175.633 588.487 201.061 501.636C226.49 414.784 280.65 328.39 337.478 257.827C394.305 187.264 464.51 128.54 544.085 85.0084C623.66 41.4765 711.045 13.9891 801.253 4.11565C891.461 -5.75783 982.724 2.17595 1069.83 27.464C1156.94 52.7521 1238.18 94.8991 1308.93 151.499C1379.68 208.099 1438.54 278.042 1482.15 357.337Z"/>
</mask>
<path fill-rule="evenodd" clip-rule="evenodd" d="M1482.15 357.337C1525.76 436.632 1553.28 523.724 1563.12 613.641L1329.39 652.93C1295.37 566.521 1210.87 511.432 1122.1 524.808C1034.78 537.965 970.922 613.211 962.151 703.8L877.278 714.02L583.838 741.703L166.785 776.032C156.943 686.114 175.633 588.487 201.061 501.636C226.49 414.784 280.65 328.39 337.478 257.827C394.305 187.264 464.51 128.54 544.085 85.0084C623.66 41.4765 711.045 13.9891 801.253 4.11565C891.461 -5.75783 982.724 2.17595 1069.83 27.464C1156.94 52.7521 1238.18 94.8991 1308.93 151.499C1379.68 208.099 1438.54 278.042 1482.15 357.337Z" fill="url(#paint1_linear_3_160)"/>
<path d="M1563.12 613.641L1571.07 660.977L1615.76 653.465L1610.83 608.419L1563.12 613.641ZM1329.39 652.93L1284.73 670.515L1298.98 706.716L1337.35 700.266L1329.39 652.93ZM1122.1 524.808L1114.95 477.343L1114.95 477.343L1122.1 524.808ZM962.151 703.8L967.889 751.456L1006.21 746.842L1009.93 708.426L962.151 703.8ZM877.278 714.02L881.786 761.808L882.402 761.75L883.016 761.676L877.278 714.02ZM583.838 741.703L587.776 789.541L588.062 789.518L588.347 789.491L583.838 741.703ZM166.785 776.032L119.07 781.254L124.154 827.703L170.723 823.87L166.785 776.032ZM201.061 501.636L154.995 488.148L154.995 488.148L201.061 501.636ZM337.478 257.827L300.094 227.72L300.094 227.72L337.478 257.827ZM544.085 85.0084L567.122 127.119L567.122 127.119L544.085 85.0084ZM801.253 4.11565L806.476 51.8307L806.476 51.8307L801.253 4.11565ZM1069.83 27.464L1083.21 -18.6328L1069.83 27.464ZM1610.83 608.419C1600.3 512.214 1570.87 419.035 1524.21 334.204L1440.09 380.47C1480.66 454.228 1506.25 535.234 1515.4 618.864L1610.83 608.419ZM1337.35 700.266L1571.07 660.977L1555.16 566.306L1321.44 605.594L1337.35 700.266ZM1129.25 572.272C1192.93 562.677 1257.75 601.997 1284.73 670.515L1374.06 635.346C1332.99 531.045 1228.81 460.187 1114.95 477.343L1129.25 572.272ZM1009.93 708.426C1016.87 636.676 1066.59 581.713 1129.25 572.272L1114.95 477.343C1002.96 494.217 924.969 589.747 914.374 699.175L1009.93 708.426ZM883.016 761.676L967.889 751.456L956.413 656.145L871.54 666.364L883.016 761.676ZM588.347 789.491L881.786 761.808L872.77 666.232L579.33 693.915L588.347 789.491ZM170.723 823.87L587.776 789.541L579.901 693.865L162.847 728.193L170.723 823.87ZM154.995 488.148C128.903 577.267 108.211 682.047 119.07 781.254L214.5 770.809C205.675 690.181 222.363 599.707 247.127 515.123L154.995 488.148ZM300.094 227.72C241.21 300.836 182.886 392.886 154.995 488.148L247.127 515.123C270.093 436.683 320.091 355.943 374.862 287.934L300.094 227.72ZM521.048 42.8977C435.957 89.4476 360.874 152.248 300.094 227.72L374.862 287.934C427.735 222.28 493.064 167.633 567.122 127.119L521.048 42.8977ZM796.031 -43.5994C699.578 -33.0424 606.139 -3.65199 521.048 42.8978L567.122 127.119C641.18 86.605 722.513 61.0207 806.476 51.8307L796.031 -43.5994ZM1083.21 -18.6328C990.067 -45.6739 892.483 -54.1564 796.031 -43.5994L806.476 51.8307C890.439 42.6407 975.38 50.0258 1056.45 73.5608L1083.21 -18.6328ZM1338.92 114.018C1263.25 53.4806 1176.36 8.40848 1083.21 -18.6328L1056.45 73.5608C1137.52 97.0956 1213.12 136.318 1278.94 188.98L1338.92 114.018ZM1524.21 334.204C1477.55 249.373 1414.58 174.556 1338.92 114.018L1278.94 188.98C1344.77 241.641 1399.52 306.711 1440.09 380.47L1524.21 334.204Z" fill="#9F9F9F" mask="url(#path-7-inside-2_3_160)"/>
<g filter="url(#filter3_i_3_160)">
<ellipse cx="1153.87" cy="729.131" rx="161.406" ry="170.558" transform="rotate(-6.44787 1153.87 729.131)" fill="white"/>
</g>
<path d="M1291.89 713.532C1301.21 795.963 1245.58 867.767 1170.49 876.252C1095.41 884.738 1025.15 827.161 1015.84 744.73C1006.52 662.299 1062.15 590.495 1137.24 582.009C1212.32 573.524 1282.58 631.101 1291.89 713.532Z" stroke="#AAAAAA" stroke-opacity="0.11" stroke-width="45"/>
<g filter="url(#filter4_d_3_160)">
<ellipse cx="1154.03" cy="728.787" rx="112.893" ry="123.981" transform="rotate(-6.44787 1154.03 728.787)" fill="white"/>
</g>
<path d="M816.45 33.7728C421.807 116.254 418.114 400.267 533.614 533C777.614 710.5 911.748 602.626 928.153 602.626C1072.77 409.801 1255.64 482.894 1323.99 543.544L1339.11 566.732L1362.61 602.626L1524.11 558.732L1509.11 490.087C1395.14 202.315 1106.11 -26.7676 816.45 33.7728Z" fill="url(#paint2_linear_3_160)" fill-opacity="0.29"/>
<path opacity="0.2" d="M1538 764L1383 796C1466.6 922.4 1272.67 1211.33 1160.5 1340C1464.9 1214.8 1543 905.333 1538 764Z" fill="#403636" fill-opacity="0.42"/>
<g opacity="0.6" filter="url(#filter5_bddd_3_160)">
<circle cx="1154" cy="723" r="106" fill="url(#paint3_linear_3_160)" shape-rendering="crispEdges"/>
</g>
<defs>
<filter id="filter0_i_3_160" x="211.662" y="510.568" width="1365.4" height="463.523" filterUnits="userSpaceOnUse" color-interpolation-filters="sRGB">
<feFlood flood-opacity="0" result="BackgroundImageFix"/>
<feBlend mode="normal" in="SourceGraphic" in2="BackgroundImageFix" result="shape"/>
<feColorMatrix in="SourceAlpha" type="matrix" values="0 0 0 0 0 0 0 0 0 0 0 0 0 0 0 0 0 0 127 0" result="hardAlpha"/>
<feOffset/>
<feGaussianBlur stdDeviation="52.9363"/>
<feComposite in2="hardAlpha" operator="arithmetic" k2="-1" k3="1"/>
<feColorMatrix type="matrix" values="0 0 0 0 0.387457 0 0 0 0 0.323077 0 0 0 0 0.323077 0 0 0 0.41 0"/>
<feBlend mode="normal" in2="shape" result="effect1_innerShadow_3_160"/>
</filter>
<filter id="filter1_f_3_160" x="0.114258" y="497.948" width="1781.38" height="663.311" filterUnits="userSpaceOnUse" color-interpolation-filters="sRGB">
<feFlood flood-opacity="0" result="BackgroundImageFix"/>
<feBlend mode="normal" in="SourceGraphic" in2="BackgroundImageFix" result="shape"/>
<feGaussianBlur stdDeviation="93" result="effect1_foregroundBlur_3_160"/>
</filter>
<filter id="filter2_f_3_160" x="13.1143" y="366" width="1761.5" height="542.5" filterUnits="userSpaceOnUse" color-interpolation-filters="sRGB">
<feFlood flood-opacity="0" result="BackgroundImageFix"/>
<feBlend mode="normal" in="SourceGraphic" in2="BackgroundImageFix" result="shape"/>
<feGaussianBlur stdDeviation="93" result="effect1_foregroundBlur_3_160"/>
</filter>
<filter id="filter3_i_3_160" x="992.325" y="558.671" width="323.081" height="340.92" filterUnits="userSpaceOnUse" color-interpolation-filters="sRGB">
<feFlood flood-opacity="0" result="BackgroundImageFix"/>
<feBlend mode="normal" in="SourceGraphic" in2="BackgroundImageFix" result="shape"/>
<feColorMatrix in="SourceAlpha" type="matrix" values="0 0 0 0 0 0 0 0 0 0 0 0 0 0 0 0 0 0 127 0" result="hardAlpha"/>
<feMorphology radius="9.5" operator="erode" in="SourceAlpha" result="effect1_innerShadow_3_160"/>
<feOffset/>
<feGaussianBlur stdDeviation="9.5"/>
<feComposite in2="hardAlpha" operator="arithmetic" k2="-1" k3="1"/>
<feColorMatrix type="matrix" values="0 0 0 0 0 0 0 0 0 0 0 0 0 0 0 0 0 0 0.25 0"/>
<feBlend mode="normal" in2="shape" result="effect1_innerShadow_3_160"/>
</filter>
<filter id="filter4_d_3_160" x="1012.48" y="576.43" width="283.102" height="304.715" filterUnits="userSpaceOnUse" color-interpolation-filters="sRGB">
<feFlood flood-opacity="0" result="BackgroundImageFix"/>
<feColorMatrix in="SourceAlpha" type="matrix" values="0 0 0 0 0 0 0 0 0 0 0 0 0 0 0 0 0 0 127 0" result="hardAlpha"/>
<feMorphology radius="9.5" operator="dilate" in="SourceAlpha" result="effect1_dropShadow_3_160"/>
<feOffset/>
<feGaussianBlur stdDeviation="9.5"/>
<feComposite in2="hardAlpha" operator="out"/>
<feColorMatrix type="matrix" values="0 0 0 0 0.562457 0 0 0 0 0.562457 0 0 0 0 0.562457 0 0 0 0.25 0"/>
<feBlend mode="normal" in2="BackgroundImageFix" result="effect1_dropShadow_3_160"/>
<feBlend mode="normal" in="SourceGraphic" in2="effect1_dropShadow_3_160" result="shape"/>
</filter>
<filter id="filter5_bddd_3_160" x="798" y="367" width="812" height="812" filterUnits="userSpaceOnUse" color-interpolation-filters="sRGB">
<feFlood flood-opacity="0" result="BackgroundImageFix"/>
<feGaussianBlur in="BackgroundImageFix" stdDeviation="60.5"/>
<feComposite in2="SourceAlpha" operator="in" result="effect1_backgroundBlur_3_160"/>
<feColorMatrix in="SourceAlpha" type="matrix" values="0 0 0 0 0 0 0 0 0 0 0 0 0 0 0 0 0 0 127 0" result="hardAlpha"/>
<feOffset dx="100" dy="100"/>
<feGaussianBlur stdDeviation="125"/>
<feColorMatrix type="matrix" values="0 0 0 0 1 0 0 0 0 1 0 0 0 0 1 0 0 0 0.9 0"/>
<feBlend mode="normal" in2="effect1_backgroundBlur_3_160" result="effect2_dropShadow_3_160"/>
<feColorMatrix in="SourceAlpha" type="matrix" values="0 0 0 0 0 0 0 0 0 0 0 0 0 0 0 0 0 0 127 0" result="hardAlpha"/>
<feOffset/>
<feGaussianBlur stdDeviation="125"/>
<feComposite in2="hardAlpha" operator="out"/>
<feColorMatrix type="matrix" values="0 0 0 0 1 0 0 0 0 1 0 0 0 0 1 0 0 0 1 0"/>
<feBlend mode="normal" in2="effect2_dropShadow_3_160" result="effect3_dropShadow_3_160"/>
<feColorMatrix in="SourceAlpha" type="matrix" values="0 0 0 0 0 0 0 0 0 0 0 0 0 0 0 0 0 0 127 0" result="hardAlpha"/>
<feOffset dy="4"/>
<feGaussianBlur stdDeviation="125"/>
<feComposite in2="hardAlpha" operator="out"/>
<feColorMatrix type="matrix" values="0 0 0 0 0.552941 0 0 0 0 0.858824 0 0 0 0 0.643137 0 0 0 0.4 0"/>
<feBlend mode="normal" in2="effect3_dropShadow_3_160" result="effect4_dropShadow_3_160"/>
<feBlend mode="normal" in="SourceGraphic" in2="effect4_dropShadow_3_160" result="shape"/>
</filter>
<linearGradient id="paint0_linear_3_160" x1="191.588" y1="1078.15" x2="1586.94" y2="1078.15" gradientUnits="userSpaceOnUse">
<stop stop-color="#F9F9F9"/>
<stop offset="1" stop-color="#3A4249"/>
</linearGradient>
<linearGradient id="paint1_linear_3_160" x1="164.114" y1="388.016" x2="1563.12" y2="388.016" gradientUnits="userSpaceOnUse">
<stop stop-color="#9C0D04"/>
<stop offset="1" stop-color="#393C3F"/>
</linearGradient>
<linearGradient id="paint2_linear_3_160" x1="848.704" y1="30.8285" x2="848.704" y2="674.035" gradientUnits="userSpaceOnUse">
<stop stop-color="white"/>
<stop offset="1" stop-color="white" stop-opacity="0"/>
</linearGradient>
<linearGradient id="paint3_linear_3_160" x1="1026.86" y1="774.747" x2="1208.43" y2="798.981" gradientUnits="userSpaceOnUse">
<stop stop-color="white"/>
<stop offset="1" stop-color="white" stop-opacity="0.24"/>
</linearGradient>
</defs>
</svg>
